<?xml version="1.0" standalone="no"?><!DOCTYPE svg PUBLIC "-//W3C//DTD SVG 1.1//EN" "http://www.w3.org/Graphics/SVG/1.1/DTD/svg11.dtd"><svg t="1766248700486" class="icon" viewBox="0 0 1024 1024" version="1.1" xmlns="http://www.w3.org/2000/svg" p-id="4683" xmlns:xlink="http://www.w3.org/1999/xlink" width="200" height="200"><path d="M256 85.333333h512c46.933333 0 85.333333 38.4 85.333333 85.333334v682.666666c0 46.933333-38.4 85.333333-85.333333 85.333334H256c-46.933333 0-85.333333-38.4-85.333333-85.333334V170.666667c0-46.933333 38.4-85.333333 85.333333-85.333334z m0 42.666667c-23.466667 0-42.666667 19.2-42.666667 42.666667v682.666666c0 23.466667 19.2 42.666667 42.666667 42.666667h512c23.466667 0 42.666667-19.2 42.666667-42.666667V170.666667c0-23.466667-19.2-42.666667-42.666667-42.666667H256z" fill="#3A5E54" p-id="4684"></path><path d="M298.666667 170.666667h426.666666c23.466667 0 42.666667 19.2 42.666667 42.666666v110.933334c0 23.466667-19.2 42.666667-42.666667 42.666666H298.666667c-23.466667 0-42.666667-19.2-42.666667-42.666666V213.333333c0-23.466667 19.2-42.666667 42.666667-42.666666z m0 42.666666v110.933334h426.666666V213.333333H298.666667zM285.866667 401.066667h93.866666c9.386667 0 17.066667 7.68 17.066667 17.066666v93.866667c0 9.386667-7.68 17.066667-17.066667 17.066667H285.866667c-9.386667 0-17.066667-7.68-17.066667-17.066667V418.133333c0-9.386667 7.68-17.066667 17.066667-17.066666z m17.066666 93.866666h59.733334v-59.733333H302.933333v59.733333zM285.866667 563.2h93.866666c9.386667 0 17.066667 7.68 17.066667 17.066667v93.866666c0 9.386667-7.68 17.066667-17.066667 17.066667H285.866667c-9.386667 0-17.066667-7.68-17.066667-17.066667v-93.866666c0-9.386667 7.68-17.066667 17.066667-17.066667z m17.066666 93.866667h59.733334v-59.733334H302.933333v59.733334zM465.066667 401.066667h93.866666c9.386667 0 17.066667 7.68 17.066667 17.066666v93.866667c0 9.386667-7.68 17.066667-17.066667 17.066667h-93.866666c-9.386667 0-17.066667-7.68-17.066667-17.066667V418.133333c0-9.386667 7.68-17.066667 17.066667-17.066666z m17.066666 93.866666h59.733334v-59.733333h-59.733334v59.733333zM465.066667 563.2h93.866666c9.386667 0 17.066667 7.68 17.066667 17.066667v93.866666c0 9.386667-7.68 17.066667-17.066667 17.066667h-93.866666c-9.386667 0-17.066667-7.68-17.066667-17.066667v-93.866666c0-9.386667 7.68-17.066667 17.066667-17.066667z m17.066666 93.866667h59.733334v-59.733334h-59.733334v59.733334zM644.266667 401.066667h93.866666c9.386667 0 17.066667 7.68 17.066667 17.066666v93.866667c0 9.386667-7.68 17.066667-17.066667 17.066667h-93.866666c-9.386667 0-17.066667-7.68-17.066667-17.066667V418.133333c0-9.386667 7.68-17.066667 17.066667-17.066666z m17.066666 93.866666h59.733334v-59.733333h-59.733334v59.733333z" fill="#3A5E54" p-id="4685"></path><path d="M644.266667 563.2h93.866666c9.386667 0 17.066667 7.68 17.066667 17.066667v256c0 9.386667-7.68 17.066667-17.066667 17.066666h-93.866666c-9.386667 0-17.066667-7.68-17.066667-17.066666v-256c0-9.386667 7.68-17.066667 17.066667-17.066667z m17.066666 34.133333v221.866667h59.733334v-221.866667h-59.733334z" fill="#3A5E54" p-id="4686"></path><path d="M285.866667 725.333333h93.866666c9.386667 0 17.066667 7.68 17.066667 17.066667v93.866667c0 9.386667-7.68 17.066667-17.066667 17.066666H285.866667c-9.386667 0-17.066667-7.68-17.066667-17.066666v-93.866667c0-9.386667 7.68-17.066667 17.066667-17.066667z m17.066666 93.866667h59.733334v-59.733333H302.933333v59.733333zM465.066667 725.333333h93.866666c9.386667 0 17.066667 7.68 17.066667 17.066667v93.866667c0 9.386667-7.68 17.066667-17.066667 17.066666h-93.866666c-9.386667 0-17.066667-7.68-17.066667-17.066666v-93.866667c0-9.386667 7.68-17.066667 17.066667-17.066667z m17.066666 34.133334v59.733333h59.733334v-59.733333h-59.733334z" fill="#3A5E54" p-id="4687"></path></svg>